<svg width="150" height="150" viewBox="0 0 150 150" fill="none" xmlns="http://www.w3.org/2000/svg">
<g id="play-sharp-top">
<path id="oktagon" d="M71.1732 1.58513C73.6234 0.570188 76.3766 0.570187 78.8268 1.58513L124.206 20.3819C126.656 21.3968 128.603 23.3435 129.618 25.7938L148.415 71.1732C149.43 73.6234 149.43 76.3766 148.415 78.8268L129.618 124.206C128.603 126.656 126.656 128.603 124.206 129.618L78.8268 148.415C76.3766 149.43 73.6234 149.43 71.1732 148.415L25.7938 129.618C23.3435 128.603 21.3968 126.656 20.3819 124.206L1.58513 78.8268C0.570188 76.3766 0.570187 73.6234 1.58513 71.1732L20.3819 25.7938C21.3968 23.3435 23.3435 21.3968 25.7938 20.3819L71.1732 1.58513Z" fill="#82E255"/>
<path id="play" d="M117.5 70.6699C120.833 72.5944 120.833 77.4056 117.5 79.3301L57.5 113.971C54.1667 115.896 50 113.49 50 109.641L50 40.359C50 36.51 54.1667 34.1044 57.5 36.0289L117.5 70.6699Z" fill="#444444"/>
</g>
</svg>
